<?xml version="1.0" encoding="UTF-8" standalone="no"?>
<!-- Created with Inkscape (http://www.inkscape.org/) -->

<svg
   width="18.636719"
   height="28.517578"
   viewBox="0 0 18.636719 28.517578"
   version="1.1"
   id="svg1"
   inkscape:export-filename="location.svg"
   inkscape:export-xdpi="96"
   inkscape:export-ydpi="96"
   xmlns:inkscape="http://www.inkscape.org/namespaces/inkscape"
   xmlns:sodipodi="http://sodipodi.sourceforge.net/DTD/sodipodi-0.dtd"
   xmlns="http://www.w3.org/2000/svg"
   xmlns:svg="http://www.w3.org/2000/svg">
  <sodipodi:namedview
     id="namedview1"
     pagecolor="#ffffff"
     bordercolor="#000000"
     borderopacity="0.25"
     inkscape:showpageshadow="2"
     inkscape:pageopacity="0.0"
     inkscape:pagecheckerboard="0"
     inkscape:deskcolor="#d1d1d1"
     inkscape:document-units="px">
    <inkscape:page
       x="0"
       y="0"
       width="18.636719"
       height="28.517578"
       id="page2"
       margin="0"
       bleed="0" />
  </sodipodi:namedview>
  <defs
     id="defs1" />
  <g
     inkscape:label="Warstwa 1"
     inkscape:groupmode="layer"
     id="layer1"
     transform="translate(-6.5996093,-2.2148438)">
    <path
       id="path1"
       style="fill:#ffffff;fill-opacity:1;stroke-width:3.77953;stroke-linecap:round;stroke-linejoin:round;paint-order:stroke fill markers"
       d="M 15.917969,2.2148438 A 9.3180075,9.3180075 0 0 0 6.5996094,11.533203 c 0.015968,0.266954 0.036548,0.530485 0.060547,0.791016 a 9.3180075,9.3180075 0 0 0 0.080078,0.740234 c 0.9368628,7.586533 5.2544646,12.469731 9.1777346,17.667969 3.922611,-5.197365 8.239893,-10.079713 9.177734,-17.664063 A 9.3180075,9.3180075 0 0 0 25.236328,11.533203 9.3180075,9.3180075 0 0 0 15.917969,2.2148438 Z M 16,5.3535156 A 6.0423098,6.0423098 0 0 1 22.042969,11.396484 6.0423098,6.0423098 0 0 1 16,17.4375 6.0423098,6.0423098 0 0 1 9.9570312,11.396484 6.0423098,6.0423098 0 0 1 16,5.3535156 Z" />
  </g>
</svg>
